<?xml version="1.0" standalone="no"?>
<svg xmlns="http://www.w3.org/2000/svg" viewBox="0 0 68.52 51.84" width="68.52" height="51.84"><rect fill="#0019ff" width="68.52" height="51.84" x="0" y="0"></rect><g fill="white" color="white" transform="translate(12 12.001) scale(0.58)"><svg width="28.0" height="48.0" x="0.0" y="0.0" viewBox="0 0 28 48"><path fill="currentColor" fill-rule="nonzero" d="M13.93.61L.36 30.2l13.57 17.19L27.51 30.2 13.93.61zm0 3.92L25.6 30.02H2.26L13.93 4.53z"></path></svg></g><path fill="white" fill-rule="nonzero" d="M13.08 27.84L0.16 27.84Q0 27.84 0 27.64L0 27.64L0.04 0.20Q0.04 0 0.24 0L0.24 0L4.68 0Q4.88 0 4.88 0.20L4.88 0.20L4.84 22.92L13.08 22.92Q13.28 22.92 13.28 23.12L13.28 23.12L13.28 27.64Q13.28 27.84 13.08 27.84L13.08 27.84Z" transform="translate(43.24 12.001) scale(1)"></path></svg>